<svg width="60" height="146" viewBox="0 0 60 146" fill="none" xmlns="http://www.w3.org/2000/svg">
<circle cx="49" cy="69" r="11" fill="#2C2929"/>
<path d="M15.9684 35.1668C16.3291 33.8142 17.2459 33.138 18.7187 33.138H26.5636C27.315 33.138 27.856 33.4235 28.1867 33.9946C28.5173 34.5657 28.5924 35.242 28.4121 36.0234L22.2804 60.0992L40.9008 34.3553C41.1413 34.0547 41.3216 33.8443 41.4418 33.7241C41.5921 33.5738 41.8476 33.4385 42.2083 33.3183C42.599 33.1981 43.08 33.138 43.651 33.138H52.7133C53.7653 33.138 54.3814 33.4986 54.5618 34.22C54.7722 34.9414 54.5167 35.7229 53.7953 36.5645C53.7953 36.5645 46.3412 46.3781 31.4328 66.0054L39.1425 97.2498C39.7136 99.0833 39.0072 100 37.0234 100H29.7196C27.856 100 26.7139 99.2335 26.2931 97.7006L19.7556 69.9729L12.6321 97.9711C12.2714 99.3237 11.3396 100 9.83679 100H1.99188C1.24046 100 0.699429 99.7295 0.368801 99.1885C0.0381725 98.6174 -0.0369703 97.9411 0.143372 97.1596L15.9684 35.1668Z" fill="#2C2929"/>
</svg>
